<svg xmlns="http://www.w3.org/2000/svg" viewBox="0 0 203.8 231.4">
  <style>
    .st0{fill:#ebbb1e}.st2{fill:#264a6e}
  </style>
  <path class="st0" d="M117.5 49.7l-1.5-6.6s-5 0-7-3-8.2-12.9-3.1-14c5.1-1 7.1 9 7.1 9l5 1s-2-17 3-18 4 32 4 32l-7.5-.4zM53 130.2h42v8H53z"/>
  <path d="M197.9 201.3c-.4-.7-1.7-1.2-2.9-1.5-6.8-1.9-14-3.1-21.4-3.8.8 1.5 1.5 3.2 1.9 5 .2 1-.4 1.9-1.4 1.9-6.1.1-12.2.7-18.3-.2-.7-.1-1.1-.8-1.1-1.4-.2-2.4-1.2-4.3-2.6-6h-.5c-14.8.1-29.6 1.4-44.4 1.8-21.6.7-43.4-.3-65 .1.3 1.6.4 3.3-.2 4.7-.8 2.2-3 1.8-4.9 1.9-3.1 0-6.9.4-9.8-.9-1.5-.7-1.7-2.1-1.6-3.5 0-.5 0-.9.1-1.4v-.1c-1.8.1-3.6.2-5.4.4-2.1.2-4.4.4-6.2 1-1.8.7-3.2 2-2.9 3.2.4 1.5 3.1 2.6 3.1 4.1 0 1.4-2.1 2.3-3.8 3.2-1.7.9-3.4 2.3-2.4 3.5.4.5 1.2.8 2 1.1 4.6 1.6 10.1 1.9 15.4 1.9 8.1 0 16.1-.5 24.2-.3 14.5.2 28.8 2.4 43.4 2.4 8.2 0 16.7-.8 23.5-3.6 3.2-1.3 5.9-3 9.2-4.2 7.4-2.6 16.1-2.2 24.9-1.8 14.2.1 28.2-2.1 41.9-4.3 2.7-.6 6.1-1.7 5.2-3.2z" fill="#256eab"/>
  <path class="st2" d="M150.4 203.8l.3.3s.1 0 .1.1c.1 0 .1.1.1.1.5.1 1 .1 1.6.1 6-.2 12.2.3 18.4.3.5-.1 1-.2 1.6-.3.6-.1 1.2-.1 1.8 0 .4 0 .5.1 1.2.1h2.8v-.1l-.2-1-.5-2.1-.5-2.1-.9-4.2c-.1-.3-.2-.6-.3-.8-.2-.7-.4-1.4-.5-2.1l-.2-.2c-.4-.6-.5-1.3-.3-2-.2-.5-.3-.9-.4-1.4-.1-.3 0-.6.1-.7-.1-.5-.2-1-.2-1.5l-2.1-10.2c-.2-.2-.3-.5-.4-.9-.1-.3 0-.5.1-.7l-1.8-8.3c-.2-.4-.4-.8-.4-1.2-.1-.1-.2-.3-.3-.4-.2-.3-.3-.8-.1-1.1-.1-.2-.1-.4-.2-.7v-.7l-.6-2.5c-.1-.1-.2-.3-.3-.5-.2-.6-.3-1.2-.4-1.9 0-.1-.1-.3-.1-.4-.1-.4-.2-.8-.1-1.2l-.7-3.3c-.7-1.5-1.4-3.1-2.1-4.6-.2-.2-.3-.4-.5-.6h-.2c-.3.2-.5.4-.7.5.1.8.1 1.7.1 2.6l.3 1.1c.1.1.1.3.2.5.2.9.4 1.8.5 2.7l1.6 7.3c.2.6.3 1.1.5 1.7 0 0 0 .1.1.1.4.9.4 1.9.5 2.9l.3 1.3c.1.4.2.7.2 1.1l1.8 8.7c.2.7.3 1.5.5 2.2 1.4 6.6 2.7 13.2 4.2 19.8.1.2.2.4.3.5.3.4.3.9.1 1.1l.2.7h-6.6c-.4.1-.8.1-1.2.1-1.3 0-2.6-.1-3.9-.2l-2-.1H159.8c-.3 0-.6 0-.8-.2-2.5 0-4.9-.1-7.4.1l-.9.3c-.2.2-.1.4-.1.8 0 .3-.1.6-.2.9v.2zM163.5 139.3c.1-.1.2-.2.3-.2 0 0 0-.1.1-.1 0-.1.1-.1.1-.1 0-.4 0-.8-.1-1.2-.9-4.6-1.8-9.1-2.5-13.7-.2-.4-.3-.7-.4-1.1-.2-.9-.2-1.8-.1-2.7-.3-2.1-.6-4.2-.8-6.4-.1-.2-.1-.4-.2-.6-.1-.5-.2-1.1-.2-1.6-.1 0-.1-.1-.2-.2-.3-.5-.3-1-.1-1.5-.1-.4-.1-.7-.2-1.1 0-.2.1-.4.2-.5v-1.2c-.2-2.6-.2-5.2-.4-7.9-.1-.2-.2-.4-.3-.7 0-.2.1-.4.2-.5-.1-2.2-.3-4.3-.5-6.5-.2-.3-.3-.6-.2-1-.1-.1-.1-.2-.2-.4s-.1-.6 0-.8c0-.2-.1-.3-.1-.5s.1-.4.1-.5l-.2-2c-.1-.1-.2-.3-.2-.4-.1-.4-.2-1-.1-1.5 0-.1-.1-.2-.1-.3-.1-.3-.1-.6 0-.9l-.4-2.5c-.5-1.2-1.1-2.4-1.6-3.6-.1-.2-.3-.3-.4-.5h-.2c-.3.1-.6.3-.7.4 0 .6 0 1.3-.1 2l.1.9c.1.1.1.2.1.4.1.7.2 1.4.2 2.1.3 1.9.5 3.7.7 5.6.1.4.2.9.2 1.3v.1c.3.7.1 1.4.1 2.2l.1 1c0 .3.1.6.1.8.2 2.2.3 4.5.4 6.7.1.6.1 1.1.1 1.7.2 5.1.6 10.3 1.2 15.4.1.1.1.3.2.4.3.3.2.7-.1.9.3 2.7.8 5.4 1.2 8.1l.3.9c.2 1 .3 2 .4 3l.3 1.5s0 .1.1.1c.1.2.1.4.2.6l.1.2v.1c.1.2.1.4 0 .6l1.1 5.5c.1.2.2.4.4.6.2.1.4 0 .8-.1.3-.1.6 0 .9 0l.3-.3zM154.9 71.4c.1-.1.1-.3.2-.5v-.2c0-.1.1-.2.1-.2-.1-.8-.2-1.7-.4-2.6l-1.7-7.3-.8-3.6c-.3-1.1-.4-2.3-.6-3.5-.6-4.8-.9-9.8-1.4-14.7-.2-.8-.4-1.6-.6-2.5-.2-1-.3-1.9-.4-2.9-.1-.5-.1-1-.2-1.5l-.1-.8-.1-.7c-.9-4.2-.4-8.8-.8-13.5l-.2-1.5-.3-1.8c-.1-.6-.2-1.2-.5-1.9-.1-.1-.2-.2-.3-.4-.4-.6-.8-1.2-1.5-1.6-.7-.4-1.3-.6-1.8-.8-.9-.1-1.7 0-2.6 0-.6 0-.9 0-1.2-.2-.9.2-1.7.3-2.5.3l-4.9.4.9 8 .7 6.6c.2.4.3.9.4 1.5.1.4 0 .8-.1 1.1l1.3 13.6c.2.6.3 1.3.3 2.1.1.2.2.5.2.8.1.5.2 1.3.1 1.8.1.3.1.7.1 1.1 0 .4 0 .8-.1 1.1l.4 4.1.3.9c.1.9.2 2 .2 3.1 0 .2.1.5.1.7.1.7.1 1.4 0 1.9l.5 5.4c.6 2.6 1.2 5.2 1.7 7.9l.5 1.1h.2c.3-.2.6-.5.7-.6 0-1.3 0-2.8.1-4.2l-.2-1.9c-.1-.2-.1-.5-.1-.8-.1-1.5-.3-3-.3-4.4L139 48c-.1-.9-.3-1.9-.4-2.8 0-.1 0-.1-.1-.2-.3-1.5-.2-3.1-.3-4.7l-.2-2.1c-.1-.6-.1-1.2-.2-1.8-.5-4.8-.9-9.6-1.4-14.3-.2-1.2-.3-2.4-.4-3.6l-.7-6.5 4.7-.4c1-.1 1.9-.1 2.8-.1.4 0 .9.1 1.1.2l.2.1c.1.1.2.2.2.3.3.5.5 1.5.7 2.4.2.9.3 1.9.3 2.9.1 2 .1 4 .2 6 .1.3.1.6.2.9.2.8.1 1.5-.1 1.9.1 1.5.2 3 .5 4.5l.5 2.1c.1.7.3 1.4.4 2 .4 2.8.7 5.6.9 8.4.1.6.2 1.2.3 1.9.2 2.1.3 4.2.5 6.4.1 1.1.3 2.2.4 3.3 0 .1.1.2.1.3l.3 1.3.1.5v.1l.1.2c.2.5.2 1 .2 1.4l2.6 11.4c.2.5.4.9.6 1.3v.1c.2.2.4.1.8 0 .3 0 .7.2 1 .2-.1-.1 0-.1 0-.2zM139.4 76.8c-.1.1-.2.1-.3.2l-.1.1-.1.1c-.1.4-.1.8-.1 1.2l1.4 14.1c.2.4.3.8.4 1.2.2.9.1 1.8 0 2.8l.6 6.5c.1.2.1.4.2.7.1.6.2 1.1.2 1.7.1 0 .1.1.2.2.3.5.3 1.1.1 1.5.1.4.2.7.2 1.1 0 .2-.1.4-.2.6 0 .4.1.8 0 1.2l.8 7.9c.1.2.2.4.3.7 0 .2 0 .4-.2.5l.6 6.5c.2.3.3.6.2 1 .1.1.1.2.2.4s.2.6 0 .9c0 .2.1.3.1.5s-.1.4-.1.5l.2 2c.1.1.2.3.2.4.1.4.1 1 .1 1.5 0 .1.1.2.1.3.1.3.1.6-.1.9l.3 2.6c.5 1.2.9 2.4 1.4 3.7.1.2.3.3.4.5h.2c.3-.1.6-.3.8-.3 0-.6.1-1.3.2-2l-.1-.9c-.1-.1-.1-.2-.1-.4-.1-.7-.2-1.4-.1-2.1l-.6-5.7c-.1-.4-.2-.9-.2-1.3v-.1c-.3-.7-.1-1.5-.1-2.2l-.1-1c0-.3-.1-.6-.1-.9l-.7-6.8c-.1-.6-.1-1.1-.2-1.7l-1.5-15.4c-.1-.1-.1-.3-.2-.4-.3-.3-.1-.7.1-.9l-.8-8.1c-.1-.3-.2-.6-.2-.9-.2-1-.1-2-.2-3l-.2-1.5v-.1c-.1-.2-.1-.4-.1-.6V84.2c-.1-.2 0-.5.1-.6l-.6-5.6c-.1-.2-.2-.4-.3-.7-.2-.1-.4-.1-.8 0-.3 0-.6-.1-.9-.1-.2-.4-.2-.4-.3-.4z"/>
  <path class="st2" d="M146.4 146.3c-.1.1-.2.1-.3.2l-.1.1-.1.1c0 .4 0 .7-.1 1.1.5 4.2 1.1 8.4 1.7 12.6.2.3.3.7.4 1 .2.8.2 1.6.1 2.5l1 5.8c.1.2.1.4.2.6l.3 1.5c.1 0 .1.1.2.1.3.4.4.9.2 1.4.1.3.2.6.3 1 0 .2 0 .4-.2.5 0 .4.1.7.1 1.1.3 2.3.5 4.7.7 7l.3.6c0 .2-.1.4-.2.5l.4 5.8c.2.3.2.6.2.9.1.1.1.2.2.3.1.2.1.6 0 .8 0 .1.1.3 0 .5 0 .2-.1.3-.1.5l.2 1.8c.1.1.2.2.2.4.1.4.1.9.1 1.3 0 .1.1.2.1.3.1.3.1.6-.1.8l.3 2.3c.5 1.1 1 2.2 1.5 3.2l.4.4h.2c.3-.1.6-.3.7-.4 0-.6 0-1.2.1-1.8l-.1-.8c-.1-.1-.1-.2-.1-.3-.1-.6-.2-1.2-.2-1.9-.2-1.7-.4-3.4-.5-5.1-.1-.4-.2-.8-.2-1.2v-.1c-.3-.6 0-1.3 0-2l-.1-.9c0-.3-.1-.5-.1-.8l-.5-6.1c-.1-.5-.1-1-.1-1.6-.2-2.3-.5-4.6-.9-7l-1.2-6.8c-.1-.1-.2-.2-.3-.4-.3-.3-.2-.6.1-.8-.4-2.4-.8-4.8-1.1-7.2-.1-.2-.2-.5-.2-.8-.2-.9-.2-1.8-.2-2.7l-.2-1.4s0-.1-.1-.1c-.1-.2-.1-.4-.1-.5V152.3c-.1-.2 0-.4.1-.6l-.6-5-.3-.6c-.2-.1-.4 0-.8 0-.3 0-.6 0-.9-.1l-.3.3zM39.7 77.4c-.1 0-.2.1-.3.2l-.1.1-.1.1-.3 1.2-1.1 13.9c.1.4.2.8.2 1.2 0 .9-.2 1.8-.5 2.7l-.6 6.4v.7c0 .6 0 1.1-.1 1.6.1.1.1.1.1.2.2.5.1 1.1-.2 1.5v1.1c0 .2-.1.4-.3.5 0 .4-.1.8-.2 1.2-.3 2.6-.7 5.2-1.2 7.7.1.2.1.5.1.7 0 .2-.2.3-.3.4-.5 2.1-.9 4.3-1.2 6.4.1.3.1.7-.1 1 0 .1.1.2.1.4.1.3 0 .6-.2.8 0 .2 0 .3-.1.5s-.1.3-.2.5l-.3 1.9c.1.1.1.3.1.5 0 .4-.1 1-.3 1.4v.3c0 .3-.1.6-.3.9l-.4 2.5c.2 1.3.3 2.6.5 3.8l.3.6h.2c.3-.1.6-.1.8-.1.2-.6.4-1.3.7-1.9l.1-.9v-.4c.1-.7.2-1.4.4-2.1l.8-5.6c0-.4 0-.9.1-1.3v-.1c-.1-.7.3-1.4.5-2.1l.2-1c0-.3.1-.6.1-.8l.6-3.3c.2-1 .5-2.2.7-3.3.1-.6.2-1.1.3-1.7.8-5.1 1.3-10.2 1.8-15.2 0-.2-.1-.3-.2-.4-.2-.4 0-.7.3-.8l.7-8c0-.3-.1-.6-.1-.9 0-1 .2-2 .4-3l.1-1.5v-.1-.9c0-.2.1-.4.2-.6l.4-5.5c-.1-.2-.1-.5-.2-.7-.2-.1-.4-.1-.8-.2-.3 0-.6-.2-.9-.2-.1-.4-.1-.3-.2-.3zM31.2 145.7l-.4.4-.1.1-.2.2c-.2.8-.3 1.6-.5 2.5L26.5 178v2.5c-.1 1.9-.5 3.8-.9 5.6L24 199.5c0 .5 0 .9-.1 1.4 0 .4-.2 1.7-.3 2.8 0 .3-.1.6-.1.8H25.9c.1 0 .2-.1.3-.1H26.5c1.1-.2 2.3-.2 3.2.1.8-.1 1.6-.1 2.3-.1.5 0 .9.1 1.1.3.8 0 1.7 0 2.5.1H43l1.3-11.6c-.1-.5-.1-.9-.1-1.5 0-.4.2-.8.3-1l1.4-13.4c-.1-.6-.1-1.4.1-2 0-.2-.1-.5-.1-.8 0-.5.1-1.3.3-1.7 0-.3 0-.7.1-1.1.1-.4.2-.7.3-1.1l.4-4.1c-.1-.3-.1-.6-.1-.9.1-.9.2-2 .4-3v-.7c0-.7.1-1.3.3-1.9l.6-5.3c-.1-2.6-.1-5.3-.2-7.9l-.2-1.1h-.2c-.3.2-.7.3-.8.4-.2 1.3-.5 2.7-.9 4l-.2 1.8v.8c-.2 1.5-.3 2.9-.5 4.3l-1.3 11.8c0 .9-.1 1.9-.2 2.8v.2c0 1.5-.4 3-.6 4.6l-.2 2.1c0 .6-.1 1.2-.2 1.8l-1.5 14.1c-.1 1.2-.2 2.4-.4 3.6l-.4 3.9H26.6l.2-1.6.8-6.7c0-.3 0-.6-.1-.9-.1-.8.1-1.4.4-1.7l2-16.8c0-.6 0-1.2.1-1.8.2-2.1.6-4.1.9-6.2l.4-3.2v-.3c0-.4 0-.9.1-1.3v-.5V160.6c0-.5.1-.9.3-1.2l1.4-11.5c0-.5 0-1-.1-1.4v-.1c-.1-.3-.4-.2-.8-.3-.3-.1-.6-.4-.9-.5l-.1.1zM49.6 139.7c.1 0 .2-.1.3-.2l.1-.1s.1-.1.2-.1l.3-1.2 1.5-13.9c-.1-.4-.1-.8-.1-1.2 0-.9.3-1.8.6-2.7l.7-6.4v-.7c0-.6.1-1.1.1-1.7-.1-.1-.1-.1-.1-.2-.2-.5-.1-1.1.2-1.5v-1.1c0-.3.1-.4.3-.5 0-.4.1-.8.2-1.2l.9-7.9c-.1-.2-.2-.5-.1-.7 0-.2.1-.4.3-.5l.7-6.4c-.1-.3-.1-.7 0-1 0-.1-.1-.2-.1-.4-.1-.3 0-.6.2-.8v-.5c.1-.2.1-.3.2-.5l.2-1.9c-.1-.1-.1-.3-.1-.5 0-.4.1-1 .2-1.4v-.3c0-.3.1-.6.2-.9l.3-2.5-.6-3.9-.3-.6h-.2c-.3.1-.6.1-.8.2-.2.6-.4 1.3-.6 1.9l-.3.9v.4c-.1.7-.1 1.4-.3 2.1l-.6 5.7V88.9c.1.7-.2 1.4-.4 2.2l-.1 1c0 .3 0 .6-.1.9l-.7 6.8c0 .6-.1 1.1-.2 1.7L50 116.6c0 .2.1.3.2.5.2.4 0 .7-.3.8L49 126v.9c-.1 1-.3 2-.4 3l-.2 1.5V132.4c0 .2-.1.4-.2.6l-.6 5.5c0 .2.1.5.2.7.2.2.4.1.8.2.3 0 .6.2.9.3 0 .1 0 .1.1 0zM56.9 72.3l.4-.4.1-.1.2-.2c.2-.8.3-1.7.5-2.6l3.3-30.1v-2.6c.1-2 .5-3.9.9-5.9l1.5-13.9c0-.5 0-1 .1-1.4l.3-3.6c0-.1-.1-.2-.1-.4V9.7c0-.5.1-1 .1-1.6-.8 0-1.6-.1-2.4-.2h-.1l-1.3.1h-1.2c-.5 0-.9-.1-1.2-.3-.9 0-1.7 0-2.6-.1h-3.5l-3.3 15.5c0 .5 0 1-.1 1.6-.1.4-.3.8-.5 1l-3 13.6c0 .7-.1 1.4-.4 2.1v.8c0 .6-.2 1.4-.5 1.7-.1.4-.1.7-.2 1.1-.1.4-.3.7-.4 1.1-.3 1.4-.7 2.7-1 4.1 0 .3 0 .6-.1 1-.1.5-.2.9-.4 1.4-.2.5-.4 1.2-.5 1.7 0 .2-.1.5-.1.7-.1.7-.2 1.4-.4 2-.2 1.9-.4 3.7-.6 5.5.1 2.7.2 5.5.3 8.2l.3 1.2h.2c.3-.2.7-.4.8-.5.2-1.4.5-2.8.8-4.2l.2-1.9v-.9c.1-1.5.3-3 .5-4.5.2-2 .5-4.1.9-5.9.1-.2.1-.4.2-.6l.2-.8c.2-.5.3-1 .4-1.5.3-1 .5-2 .8-3 .2-.9.4-1.9.6-2.9V45c.2-1.6.8-3.1 1.2-4.6l.5-2.1c.1-.6.2-1.2.4-1.8l3.2-14.3c.2-1.2.5-2.4.8-3.6l1.7-8h7.3l-1.3 12.2c0 .3 0 .6.1.9.1.8-.1 1.5-.4 1.8L58 42.9c0 .6 0 1.3-.1 1.9-.2 2.2-.5 4.3-.8 6.4l-.4 3.3v.3c0 .4 0 .9-.1 1.3v.8c0 .5-.1 1-.3 1.3l-1.3 12c0 .5 0 1 .1 1.5v.1c.1.3.4.2.8.3.3.1.6.4.9.5 0-.2 0-.2.1-.3z"/>
  <path class="st2" d="M165.7 76.7c.1-.3.2-.5.3-.9 0-.1 0-.2.1-.3 0-.2.1-.3.1-.5 0-.6.1-1.3.1-2v-1.4-2h-66.2l-5.4.3c-4.1.1-8.3-.1-12.4-.3H53.1c-1 0-2 .1-3 .1-2.5.1-5 .1-7.5.1-.2.1-.5.1-.8.2-2.3.2-4.9.2-6.9-.1h-.1c-1.7.1-3.4.1-5.1.1h-.8c-.3 0-.6 0-.8-.1-.7 0-1.4-.1-1.9-.2h-.4v3.9c0 1 0 2.1-.1 3.1v1.7H62c1-.1 2-.2 3.2-.2.9 0 1.7.1 2.3.2h29.1c1.4-.1 2.9-.2 4.4-.1.5-.1 1.1-.1 1.7-.2 1.2-.1 2.9-.1 3.8.1h2.3c.8 0 1.6.1 2.4.2h8.8c.6-.1 1.3-.2 2-.2 2 0 4.4 0 6.6.1h1.5c1.5-.1 2.9 0 4.1.1h11.5c5.6-.3 11.3-.7 17-1 .8-.1 1.6-.2 2.4-.4-.4-.3-.9-.6-1.2-.8-2.9-.1-5.9-.2-8.9-.4h-4c-.5 0-1.1.1-1.8.1-3.2 0-6.4 0-9.5-.1h-25.8c-2 .1-4 .1-6.1.1h-.4c-3.2.2-6.6-.1-9.9-.1H28.4v-3.2h38.3c.7 0 1.3-.1 1.9-.2 1.6-.2 3.1-.1 3.9.2h36.6c1.3-.1 2.6-.1 4-.1 4.5-.1 9 .1 13.6.1h7.5c.9 0 1.8 0 2.8-.1h1.6c1 0 2 0 2.8.1h22.2v.1c.1 1 .2 2.1.3 3v.2c.2.6.4.4.8.4.3 0 .6.6.9.8 0-.1.1-.2.1-.4zM172.7 145.7l.3-.9c0-.1 0-.2.1-.3 0-.2.1-.3.1-.5 0-.6.1-1.2.1-1.9v-1.4-1.9c-1.1 0-2.2 0-3.3-.1h-67.3l-5.7.3c-4.4.1-8.8-.1-13.2-.3H52.7c-1.1 0-2.1.1-3.2.1-2.7.1-5.3.1-8 .1-.2.1-.5.1-.9.2-2.4.2-5.2.2-7.4-.1h-.1c-1.8.1-3.6.1-5.4.1h-.8c-.3 0-.6 0-.8-.1-.8 0-1.5-.1-2-.2h-.5v4.1c0 1.2 0 2.4-.1 3.6v1h38.9c1-.1 2.1-.2 3.4-.2 1 0 1.8.1 2.4.2h31c1.5-.1 3.1-.2 4.7-.1.6-.1 1.1-.1 1.8-.2 1.2-.1 3.1-.1 4 .1h2.5c.9 0 1.7.1 2.5.2h9.4c.6-.1 1.4-.2 2.2-.2 2.1 0 4.7 0 7 .1h1.5c1.6-.1 3.1 0 4.3.1h12.3c6-.3 12-.7 18.1-1 .8-.1 1.7-.2 2.5-.4v-.1c-.4-.3-1-.6-1.2-.8-3-.1-6.3-.2-9.4-.4h-4.2c-.6 0-1.2.1-1.9.1-3.4 0-6.8 0-10.1-.1h-27.4c-2.1.1-4.3.1-6.5.1h-.5c-3.4.2-7-.1-10.6-.1H26.4v-3.2h40.8c.7 0 1.4-.1 2.1-.2 1.7-.2 3.3-.1 4.1.2h38.9c1.4-.1 2.8-.1 4.2-.1 4.8-.1 9.6.1 14.4.1h8c1 0 2 0 2.9-.1H143.5c1.1 0 2.2 0 2.9.1h24.1c.1 1 .2 2.1.3 3.1v.2c.2.7.4.4.8.5.3 0 .6.7.9.9.1-.3.2-.5.2-.6z"/>
  <path class="st2" d="M112.1 71.8c.1.1.2.2.2.3 0 0 .1 0 .1.1.1 0 .1.1.1.1.5.1 1 .1 1.6.2l13.2-.2 1.6-6.8c0-.5 0-1 .1-1.6.2-1.2.6-2.3 1.1-3.4l2.1-8.7c.1-.5.2-1.1.3-1.6 0-.1.1-.3.1-.4H129l-.2.2c-.6.2-1.4.2-2-.1-.5.1-1 .1-1.4.1-.3 0-.6-.1-.7-.3-.5 0-1 0-1.5-.1H113c-.3.1-.6.2-.9.2-.3 0-.5-.1-.6-.2H103l1.2 3.3c.2.4.3.5.4.7.1.2.1.4.2.6.1.1.2.2.3.4.2.3.4.7.3 1.1.1.2.2.4.2.6 0 .2.1.5.1.7l.8 2.4c.1.1.3.3.4.5.2.5.4 1.2.6 1.8.1.1.1.3.2.4.2.4.3.8.2 1.1l1.1 3.1c.9 1.4 1.7 2.8 2.5 4.2.2.2.4.3.6.5l.2-.1c.2-.2.5-.4.6-.6-.2-.8-.3-1.7-.4-2.5l-.4-1.1c-.1-.1-.2-.3-.2-.5-.3-.9-.6-1.7-.8-2.6l-2.4-6.9c-.2-.5-.5-1-.7-1.6l-.1-.1c-.5-.8-.6-1.8-.8-2.7h22.3l-.7 3.1c0 .2 0 .4.1.6.1.5-.1.9-.4 1L126 67.1c0 .4-.1.7-.1 1.1-.1.4-.2.7-.2 1.1 0 0 0 .1-.1.1h-.1-2.6-.2c-.3 0-.5.1-.8.1h-.4c-.3.1-.6 0-.8-.1l-7.1.1-.9.3c-.2.2-.1.4-.1.8 0 .3-.2.6-.2.9l-.3.3z"/>
  <path class="st2" d="M126.7 51l.3-.3s0-.1.1-.1c0-.1.1-.1.1-.2.1-.7.1-1.3.2-2V29.5 28c0-1-.1-2-.3-3-.2-.7-.4-1.3-.6-2-.4-1.5-.7-3.1-1.6-4.8-.1-.2-.4-.5-.6-.7l-.3-.3-.4-.3-.4-.3c-.1-.1-.3-.1-.5-.2-.3-.1-.6-.2-1-.3-.3 0-.7-.1-1 0-.3 0-.6 0-1 .2-.6.2-1.3.5-1.7 1-.9.9-1.4 1.9-1.7 2.9-.3 1-.5 2-.6 2.9v4c.1.1.1.2.2.3.2.8.2 1.8-.1 2.6.1.6.1 1.2.1 1.9 0 .4-.1.7-.3.9v1.8h-2v-3c0-.4-.1-.7-.1-1-.1-.7-.3-1.3-.6-2-.3-.3-.6-.7-.9-1.1-.3-.3-.4-.7-.5-1-.8-.9-2.1-1.5-3.4-1.5-.6 0-1.2.2-1.8.4-.6.3-1.2.7-1.6 1.4-.4.7-.5 1.3-.6 1.9v1.6c.1 1 .2 1.8.3 2.6.1.2.2.5.2.7v.9c.1.2.1.4.2.7.2.4.2 1.1.1 1.5.1.3.2.6.2.9 0 .3.1.6.1.9.3 1.1.7 2.2 1.3 3.3l.3.3c.1.1.2.3.4.5s.6.5.8.5c.3.1.4.2.7.3.4.2.8.3 1.2.5.2 0 .4.1.5.1.5.1 1.1.3 1.4.6l2 .5.9.2h.1c0 .1.1.5.1.7l.3 1.6c.2 1 .3 2.1.5 3.1l.4.9h.2c.3-.1.6-.3.8-.4.1-1.1.2-2.2.4-3.3v-1.5c0-.2-.1-.4-.1-.7v-2.6c-.6-.1-1.2-.3-1.8-.4l-.4-.1-.2-.1-.4-.1-4.5-1.2c-.3-.1-.7-.2-.9-.4h-.1v-.1s-.1-.1-.1-.2c-.3-.5-.6-1.2-.9-1.9-.3-.6-.5-1.3-.7-2 0 0 0-.1-.1-.1-.2-.5-.3-1.1-.3-1.6 0-.6.1-1 .1-1.8 0-.6-.1-1.2-.2-1.7s-.2-.9-.2-1.4c-.1-.9 0-1.6.2-1.7.1-.2.9-.5 1.3-.4.5.1.9.3 1.4.9.4.5.7 1.3.9 2 .1.4.2.8.2 1.1V37.6h7.6V27c0-1.5 0-2.9.2-4.2.2-1.3.5-2.7 1.2-3.4.1-.1.1-.3.2-.4.1-.2.2-.3.4-.3s.3.1.4.2c.6-.1 1.1.1 1.6.7s.9 1.6 1.2 2.6c.6 2 .8 4.2.9 6.3.1.5.1.9.1 1.4.1 1.7-.1 3.3-.1 5v2.7c0 .3.1.7.1 1V39.2c0 .4 0 .7-.1 1v9.3c.1.4.2.8.3 1.1v.1c.2.2.4.1.8.2.3 0 .6.2.9.3.2-.1.3-.1.3-.2zM96.7 139l.3-.3s0-.1.1-.1c0-.1.1-.1.1-.2.1-.7.1-1.3.2-2v-8.6H79.9c-.7.1-1.3.2-2 .3-1.5.1-3-.1-4.6-.3H62.6c-.4 0-.7.1-1.1.1-.9.1-1.8.1-2.8.1-.1.1-.2.1-.3.2-.8.2-1.8.2-2.6-.1-.3 0-.6 0-.9.1h-1.3c-.7 0-1.3-.1-1.8-.3h-.2v12.7h6.5c.4-.1.7-.2 1.2-.2.3 0 .6.1.8.2h10.7c.5-.1 1.1-.2 1.6-.1.2-.1.4-.1.6-.2.4-.1 1.1-.1 1.4.1h.9c.3 0 .6.1.9.2h3.2c.2-.1.5-.2.7-.2.7 0 1.6 0 2.4.1h.5c.5-.1 1.1 0 1.5.1h4.2c2.1-.4 4.2-.7 6.3-1l.9-.4v-.2c-.1-.3-.3-.6-.4-.8-1.1-.1-2.2-.2-3.3-.4h-1.5c-.2 0-.4.1-.7.1-1.2 0-2.4 0-3.5-.1H77c-.7.1-1.5.1-2.2.1h-.2c-1.2.2-2.4-.1-3.7-.1H54.5v-7.2h13.2c.2 0 .5-.1.7-.2.6-.2 1.2-.1 1.4.2h13.5c.5-.1 1-.1 1.5-.1 1.7-.1 3.3.1 5 .1h2.7c.3 0 .7-.1 1-.1h1.1v7.1c.1.4.2.8.3 1.1v.1c.2.2.4.1.8.2.3 0 .6.2.9.3 0-.2.1-.3.1-.3z"/>
  <path class="st2" d="M60.8 95.8c-.1-.1-.2-.1-.3-.2h-.1c-.1 0-.1-.1-.2-.1-.5.1-.9.2-1.4.4l-6.9 2.9 4.6 11.2c.3.4.6.8.8 1.2.5 1 .8 2 1 3.1l3 7.2c.1.2.3.5.4.7.3.6.6 1.2.8 1.8.1 0 .2.1.2.1.5.5.7 1.1.6 1.7l.3.6c.2.4.3.7.5 1.1.2.5.3.9.3 1.4v.1c.8-.3 1.6-.7 2.5-1l7.5-3.1-1.6-3.9c-.2-.2-.4-.4-.5-.7-.1-.2-.1-.5 0-.6l-3-7.1c-.3-.3-.5-.6-.5-1l-.3-.3c-.2-.2-.4-.7-.3-1-.1-.2-.2-.4-.2-.6-.1-.2-.1-.4-.1-.6l-.9-2.2-.4-.4c-.2-.5-.5-1.1-.6-1.6-.1-.1-.1-.2-.2-.3-.2-.3-.3-.7-.3-1.1l-1.2-2.8c-.9-1.2-1.8-2.5-2.7-3.8-.2-.1-.4-.3-.6-.4l-.6.6c.2.7.4 1.5.5 2.3l.4 1c.1.1.2.3.2.4.3.8.7 1.6.9 2.3l2.6 6.3c.3.5.5.9.7 1.4l.1.1c.5.7.6 1.6.9 2.5l.5 1.1c.1.3.3.6.4.9l3.1 7.5.2.4-4.9 2-3.5-8.4c-.1-.1-.2-.3-.4-.4-.4-.3-.4-.7-.2-1l-3.7-9c-.2-.3-.4-.6-.5-.9-.5-1.1-.9-2.2-1.3-3.4l-.7-1.7-.1-.1-.1-.2c0-.1-.1-.1-.1-.1s.1 0 .1.1l5.1-2.1c.2-.2.4-.4.6-.5.1-.2-.1-.4-.2-.8-.1-.3-.1-.6-.2-.9.1 0 0 0 0-.1zM80.7 138.1h.5c.1 0 .1-.1.2-.2v-1.8c-.1 0-.2-.1-.3-.2-.1-.1.1-.2.3-.3v-.8l-.1-.1c-.1-.1-.1-.1-.1-.2H81c-.2-.1-.2-.1.1-.2-.1 0-.1-.1-.1-.1s.1-.1.3-.1c0-.1 0-.1.1-.1v-1c-.1 0-.2-.1-.2-.1s.1 0 .2-.1v-.8c-.1 0-.2-.1-.1-.1h-.2c-.1 0-.1-.1.1-.1v-.1s.1 0 .2-.1v-.2c-.1 0-.2 0-.2-.1s0-.1.1-.2c-.1 0 0-.1.1-.1v-.3c-.4-.2-.7-.3-1-.5-.1 0-.2 0-.4-.1h-1c-.1.1-.2.2-.4.2v.1s.1 0 .1.1 0 .2-.1.3v.7c.1.1.1.1.1.2.2.1-.1.2-.1.3v3.2s.1 0 .2.1c.2 0 .1.1-.2.1v1c.1 0 .1.1.1.1.1.1-.1.3-.1.4v.2l.1.1s0 .1-.1.1v.7c.1 0 .2.1.3.1H80.7zM87.7 138.1h.5c.1 0 .1-.1.2-.2v-1.8c-.1 0-.2-.1-.3-.2-.1-.1.1-.2.3-.3v-.8l-.1-.1c-.1-.1-.1-.1-.1-.2H88c-.2-.1-.2-.1.1-.2-.1 0-.1-.1-.1-.1s.1-.1.3-.1c0-.1 0-.1.1-.1v-1c-.1 0-.2-.1-.2-.1s.1 0 .2-.1v-.8c-.1 0-.2-.1-.1-.1h-.2c-.1 0-.1-.1.1-.1v-.1s.1 0 .2-.1v-.2c-.1 0-.2 0-.2-.1s0-.1.1-.2c-.1 0 0-.1.1-.1v-.3c-.4-.2-.7-.3-1-.5-.1 0-.2 0-.4-.1h-1c-.1.1-.2.2-.4.2v.1s.1 0 .1.1 0 .2-.1.3v.7c.1.1.1.1.1.2.2.1-.1.2-.1.3v3.2s.1 0 .2.1c.2 0 .1.1-.2.1v1c.1 0 .1.1.1.1.1.1-.1.3-.1.4v.2l.1.1s0 .1-.1.1v.7c.1 0 .2.1.3.1H87.7z"/>
</svg>