<svg width="124" height="82" viewBox="0 0 124 82" fill="none" xmlns="http://www.w3.org/2000/svg">
<rect width="124" height="82" fill="white"/>
<path d="M56.2935 30.0046C52.1959 23.5457 46.9176 17.1562 39.5558 14.9337C33.6524 13.128 27.0546 14.3087 21.8457 17.5729C7.39989 26.4626 4.62183 47.0202 16.1507 59.5214C20.6651 64.383 27.3324 67.2305 33.8608 67.2305C37.125 67.2305 40.4587 66.536 43.3756 65.008C50.3902 61.3966 54.7656 54.2431 58.7243 47.4369C57.0575 45.7701 55.3907 44.1032 53.7933 42.4364C48.6539 46.8118 43.9312 52.6457 37.1944 53.618C29.6937 54.7293 22.0541 47.7841 22.4013 40.214C22.7486 32.6438 30.9438 26.4626 38.3057 28.1989C41.6393 29.0323 44.5563 31.1159 47.1954 33.3383C58.2382 42.5058 66.8501 54.382 78.6568 62.5772C68.5864 54.0347 63.3775 41.1863 56.2935 30.0046Z" fill="#286EA9"/>
<path d="M78.2401 19.6564C76.4344 20.4204 66.7807 28.6851 65.8083 30.213C66.364 30.8381 66.989 31.3937 67.5446 32.0882C70.6005 27.435 73.8647 23.0595 78.2401 19.6564Z" fill="#286EA9"/>
<path d="M117.688 32.2271C115.952 27.0877 112.966 22.7817 108.729 19.4481C104.354 15.9755 99.4227 13.8225 93.6583 14.0309C92.7554 14.0309 91.8526 13.9614 91.0191 14.0309C88.1022 14.4476 85.3936 15.4893 82.8239 16.9478C79.768 18.7535 77.2678 21.1843 75.0454 23.8929C72.684 26.8099 70.7394 29.9352 68.7948 33.1299C68.5864 33.4077 68.6559 33.6161 68.9337 33.8245C70.531 35.4218 72.1979 37.0887 73.7952 38.686C74.0036 38.8944 74.0731 38.8944 74.3509 38.686C76.9206 36.1858 79.4902 33.755 82.2683 31.602C84.5602 29.7963 87.1299 28.4073 89.9774 27.7822C92.686 27.1571 95.3946 27.296 97.8948 28.6156C101.854 30.6992 104.354 33.9634 105.118 38.4777C105.465 40.4223 105.326 42.2975 104.77 44.1727C104.076 46.8118 102.617 48.9648 100.534 50.7011C98.3115 52.5763 95.8113 53.6875 92.8943 53.6875C91.158 53.6875 89.4912 53.3402 87.8938 52.7152C85.3936 51.7429 83.2406 50.3538 81.1571 48.687C77.4067 45.5617 73.9342 42.0891 70.4616 38.6166C67.8919 35.9774 65.3222 33.3383 62.6831 30.7686C59.905 28.06 57.0575 25.4209 54.21 22.7817C52.1959 20.976 50.0429 19.3786 47.6816 17.9896C47.5427 17.9201 47.4038 17.9201 47.2649 17.9201C47.3343 17.9896 47.4038 18.1285 47.4732 18.1979C48.3067 18.8925 49.2095 19.587 50.0429 20.3509C53.0293 23.0595 55.5296 26.1848 57.752 29.5185C60.5995 33.6855 62.9609 38.061 65.4611 42.4364C67.1974 45.4228 68.8642 48.4092 70.6699 51.3262C72.7535 54.6598 75.1148 57.8546 77.9623 60.5632C80.7404 63.2718 83.9351 65.2858 87.616 66.3971C89.4218 66.9527 91.2275 67.3694 93.1027 67.3694C94.1445 67.3694 95.1862 67.2999 96.228 67.161C99.4227 66.7443 102.409 65.7025 105.187 64.0357C110.535 60.841 114.494 56.4655 116.855 50.7011C118.383 46.9507 119.008 43.0615 118.8 38.9638C118.869 36.672 118.452 34.3801 117.688 32.2271Z" fill="#ECBB13"/>
<path d="M61.7801 50.2149C61.2245 49.7288 60.5995 49.1732 60.0439 48.6175C59.6966 48.3397 59.6966 48.3397 59.4883 48.7565C57.8909 51.604 56.224 54.382 54.21 57.0211C52.4042 59.313 50.4596 61.466 48.1677 63.2717C48.0983 63.3412 48.0983 63.3412 48.0288 63.4106L48.0983 63.4801C48.1677 63.4107 48.3066 63.4107 48.3761 63.3412C49.4873 62.5078 50.668 61.7438 51.7097 60.9104C55.4601 57.8546 58.6548 54.2431 61.8496 50.6316C61.919 50.4233 61.919 50.3538 61.7801 50.2149Z" fill="#ECBB13"/>
</svg>
