<svg width="429" height="93" viewBox="0 0 429 93" fill="none" xmlns="http://www.w3.org/2000/svg">
<path d="M215.924 17.2239V21.6688H205.645V26.0442H215.924V71.4653H220.785V26.0442H237.384V21.6688H220.785V17.2239C220.785 8.47305 224.466 4.58378 230.717 4.58378C233.773 4.58378 235.717 5.48665 238.426 7.15347L240.857 3.47256C238.009 1.31957 234.676 0 230.925 0C219.883 0 215.924 7.22293 215.924 17.2239Z" fill="#286EA9"/>
<path d="M253.011 21.0437H248.01V71.4653H253.011V21.0437Z" fill="#286EA9"/>
<path d="M246.621 4.93101C246.621 10.2093 254.677 10.2093 254.677 4.93101C254.677 -0.347283 246.621 -0.347283 246.621 4.93101Z" fill="#286EA9"/>
<path d="M290.028 20.3492C283.013 20.4186 275.999 23.2661 272.11 30.2112V21.252H267.248V71.4652H272.249V43.4764C272.249 33.1282 279.471 25.2802 289.82 25.2108C300.724 25.1413 307.738 31.1836 307.738 42.5736V71.4652H312.739V42.5041C312.669 28.6139 303.432 20.3492 290.028 20.3492Z" fill="#286EA9"/>
<path d="M324.268 4.93101C324.268 10.2093 332.324 10.2093 332.324 4.93101C332.324 -0.347283 324.268 -0.347283 324.268 4.93101Z" fill="#286EA9"/>
<path d="M330.727 21.0437H325.726V71.4653H330.727V21.0437Z" fill="#286EA9"/>
<path d="M365.66 67.6454C357.812 67.6454 356.423 62.8533 356.423 56.0471V25.4191H373.508V21.2521H356.423V6.11169L351.562 6.59785V21.2521H340.866V25.4191H351.562V56.0471C351.562 65.9092 355.034 72.2292 365.66 72.2292C368.786 72.2292 371.98 71.1875 375.106 69.6595L373.369 65.5619C370.869 66.812 368.091 67.6454 365.66 67.6454Z" fill="#286EA9"/>
<path d="M423.583 21.2521L411.012 50.8383L405.178 65.4925L399.344 50.9772L387.607 21.2521H382.259L402.331 70.9097L393.094 92.4395H398.372L429 21.2521H423.583Z" fill="#286EA9"/>
<path d="M100.982 34.1005C96.8844 27.6416 91.6061 21.252 84.2443 19.0296C78.3409 17.2239 71.7431 18.4046 66.5342 21.6688C52.0884 30.5585 49.3103 51.1161 60.8392 63.6173C65.3535 68.4789 72.0209 71.3264 78.5493 71.3264C81.8135 71.3264 85.1471 70.6318 88.0641 69.1039C95.0787 65.4925 99.4541 58.339 103.413 51.5328C101.746 49.8659 100.079 48.1991 98.4818 46.5323C93.3424 50.9077 88.6197 56.7416 81.8829 57.7139C74.3822 58.8251 66.7426 51.88 67.0898 44.3098C67.4371 36.7397 75.6323 30.5585 82.9941 32.2948C86.3278 33.1282 89.2448 35.2117 91.8839 37.4342C102.927 46.6017 111.539 58.4779 123.345 66.6731C113.275 58.1306 108.066 45.2822 100.982 34.1005Z" fill="#286EA9"/>
<path d="M122.929 23.7523C121.123 24.5163 111.469 32.781 110.497 34.3089C111.053 34.934 111.678 35.4896 112.233 36.1841C115.289 31.5309 118.553 27.1554 122.929 23.7523Z" fill="#286EA9"/>
<path d="M162.377 36.323C160.641 31.1836 157.654 26.8776 153.418 23.5439C149.042 20.0714 144.111 17.9184 138.347 18.1268C137.444 18.1268 136.541 18.0573 135.708 18.1268C132.791 18.5435 130.082 19.5852 127.513 21.0437C124.457 22.8494 121.957 25.2802 119.734 27.9888C117.373 30.9058 115.428 34.0311 113.483 37.2258C113.275 37.5036 113.345 37.712 113.622 37.9203C115.22 39.5177 116.887 41.1845 118.484 42.7819C118.692 42.9903 118.762 42.9903 119.04 42.7819C121.609 40.2817 124.179 37.8509 126.957 35.6979C129.249 33.8922 131.819 32.5031 134.666 31.8781C137.375 31.253 140.083 31.3919 142.584 32.7115C146.542 34.795 149.042 38.0592 149.806 42.5736C150.154 44.5182 150.015 46.3934 149.459 48.2686C148.765 50.9077 147.306 53.0607 145.223 54.797C143 56.6722 140.5 57.7834 137.583 57.7834C135.847 57.7834 134.18 57.4361 132.583 56.8111C130.082 55.8387 127.929 54.4497 125.846 52.7829C122.095 49.6576 118.623 46.185 115.15 42.7125C112.581 40.0733 110.011 37.4342 107.372 34.8645C104.594 32.1559 101.746 29.5167 98.8987 26.8776C96.8846 25.0719 94.7317 23.4745 92.3703 22.0855C92.2314 22.016 92.0925 22.016 91.9536 22.016C92.0231 22.0855 92.0925 22.2244 92.162 22.2938C92.9954 22.9883 93.8982 23.6828 94.7317 24.4468C97.7181 27.1554 100.218 30.2807 102.441 33.6144C105.288 37.7814 107.65 42.1569 110.15 46.5323C111.886 49.5187 113.553 52.5051 115.359 55.422C117.442 58.7557 119.804 61.9505 122.651 64.659C125.429 67.3676 128.624 69.3817 132.305 70.4929C134.11 71.0486 135.916 71.4653 137.791 71.4653C138.833 71.4653 139.875 71.3958 140.917 71.2569C144.111 70.8402 147.098 69.7984 149.876 68.1316C155.224 64.9369 159.182 60.5614 161.544 54.797C163.072 51.0466 163.697 47.1573 163.488 43.0597C163.558 40.7678 163.141 38.476 162.377 36.323Z" fill="#ECBB13"/>
<path d="M106.469 54.3108C105.913 53.8247 105.288 53.2691 104.732 52.7134C104.385 52.4356 104.385 52.4356 104.177 52.8524C102.579 55.6999 100.913 58.4779 98.8984 61.117C97.0927 63.4089 95.1481 65.5619 92.8562 67.3676C92.7867 67.4371 92.7867 67.4371 92.7173 67.5065L92.7867 67.576C92.8562 67.5066 92.9951 67.5066 93.0645 67.4371C94.1758 66.6037 95.3564 65.8397 96.3982 65.0063C100.149 61.9505 103.343 58.339 106.538 54.7275C106.608 54.5192 106.608 54.4497 106.469 54.3108Z" fill="#ECBB13"/>
<path d="M25.6969 20.2807C17.085 20.2807 8.88975 23.9617 4.86158 32.0874V0.139893H0V71.3274H4.86158V60.2152C9.02865 67.8548 17.2933 72.0913 25.8358 72.0913C39.865 72.0913 50.9772 62.8543 50.9772 46.186C50.9077 29.6567 39.7261 20.2807 25.6969 20.2807ZM25.4886 67.2297C13.6819 67.2297 4.93103 58.6178 4.93103 46.1166C4.93103 33.6154 13.8902 25.0729 25.4886 25.0729C36.7397 25.0729 46.0461 32.0874 46.0461 46.186C46.0461 60.1457 36.7397 67.2297 25.4886 67.2297Z" fill="#ECBB13"/>
<path d="M176.545 44.796L201.964 21.3215V21.1132H195.366L171.683 43.0598V0.138916H166.752V71.3264H171.683V46.7407L198.631 71.3264H204.881V70.9791L176.545 44.796Z" fill="#ECBB13"/>
</svg>
