<svg width="161" height="79" viewBox="0 0 161 79" fill="none" xmlns="http://www.w3.org/2000/svg">
<path d="M134.216 44.3121C133.266 38.5504 129.879 33.6204 125.423 27.9775C125.186 27.7993 124.948 27.5617 124.77 27.3835C124.592 27.2053 124.413 27.0271 124.235 26.9083C124.176 26.8489 124.116 26.7895 124.116 26.7301C123.938 26.5519 123.819 26.3737 123.641 26.1955C123.463 26.0174 123.285 25.7798 123.166 25.6016C123.106 25.5422 123.106 25.5422 123.047 25.4828C122.869 25.3046 122.75 25.067 122.631 24.8888C122.572 24.8294 122.512 24.7106 122.453 24.6512C122.156 24.2354 121.859 23.7602 121.621 23.3444C121.562 23.285 121.562 23.2256 121.502 23.1662C119.72 20.9685 117.878 18.5925 115.977 16.0384C107.363 4.3369 113.423 -1.78114 86.5696 0.475998C59.7164 2.67374 55.1419 3.80231 47.5375 10.9895C39.933 18.2362 43.4976 23.7602 38.9231 31.0068C34.3485 38.194 32.8633 44.3121 34.8832 53.7565C36.9032 63.2008 46.5275 71.5166 46.5275 71.5166C47.5375 71.5166 57.1618 76.5061 74.3906 77.0407C91.6194 77.5753 92.6294 82.0301 102.254 75.3775C110.868 69.4377 111.403 67.4775 116.809 61.9534C116.928 61.7159 117.106 61.5377 117.284 61.3001C117.344 61.1813 117.463 61.0625 117.522 60.9437C117.7 60.7655 117.819 60.5873 117.997 60.4091C118.057 60.3497 118.116 60.2903 118.175 60.2309C118.532 59.8745 118.948 59.5181 119.304 59.2211C119.482 59.1023 119.661 58.9241 119.839 58.8053C120.077 58.6271 120.314 58.5083 120.552 58.3301C120.73 58.2113 120.908 58.1519 121.027 58.0331C128.216 52.7467 135.582 52.8655 134.216 44.3121ZM43.0818 44.0745C43.0223 44.0745 42.9629 44.0745 42.8441 44.0745C42.5471 44.0745 42.3688 43.8369 42.3688 43.5993C42.3094 43.1835 42.8441 42.7677 43.2006 43.1241C43.3194 43.2429 43.4382 43.3617 43.4382 43.5993C43.4382 43.7775 43.26 44.0151 43.0818 44.0745ZM46.884 15.1474C46.884 15.8008 45.874 15.8008 45.874 15.1474V15.0286C45.874 14.3752 46.884 14.3752 46.884 15.0286V15.1474ZM120.017 50.4895C119.78 50.6083 119.482 50.5489 119.364 50.3113C119.245 50.0737 119.304 49.7174 119.542 49.658C119.839 49.5392 120.195 49.4798 120.492 49.4798C120.433 49.8362 120.374 50.1331 120.255 50.4895C120.136 50.4895 120.077 50.4895 120.017 50.4895ZM118.235 33.7392C118.175 33.9768 118.057 34.1549 117.76 34.1549C117.106 34.1549 117.106 33.1452 117.76 33.1452C118.057 33.1452 118.235 33.3828 118.235 33.6204C118.235 33.6204 118.235 33.6798 118.175 33.6798C118.235 33.6798 118.235 33.7392 118.235 33.7392ZM120.077 24.6512L111.7 32.3136C111.343 32.67 111.046 33.0264 110.69 33.3234V32.6106C113.839 29.9971 116.868 27.2053 120.077 24.6512ZM110.928 12.0587C111.581 12.0587 111.581 13.0685 110.928 13.0685C110.274 13.0091 110.274 12.0587 110.928 12.0587ZM78.1334 16.6324C78.2522 16.6918 78.3711 16.8106 78.4899 16.87C78.4899 16.7512 78.4899 16.6918 78.4899 16.6324C78.4305 16.5136 78.4305 16.3354 78.3711 16.2166C78.3116 15.8602 78.7275 15.682 79.0246 15.7414C79.4404 15.5038 80.0345 15.5632 80.4504 15.8008C81.1039 16.276 81.1039 17.167 80.8068 17.8798C80.8068 17.9392 80.8068 17.9392 80.7474 17.9986H78.4899H78.4305C78.1334 17.8204 77.8958 17.6422 77.5987 17.464C77.1235 17.1076 77.5987 16.276 78.1334 16.6324ZM69.8161 10.9301C69.8755 10.6925 70.0537 10.5143 70.2914 10.5143C70.529 10.5143 70.826 10.7519 70.7666 10.9895C70.7666 11.4647 70.529 11.7617 70.0537 11.8211C69.7567 11.8805 69.5784 11.5835 69.5784 11.3459C69.5784 11.1083 69.6378 10.9895 69.8161 10.9301ZM84.1932 76.2091C84.1338 76.6249 83.8367 76.9813 83.4209 77.1001C83.302 77.2783 83.0644 77.3377 82.8862 77.2783C82.708 77.3377 82.4703 77.3377 82.2921 77.2189C82.1139 77.1001 81.9356 76.9813 81.8168 76.8031C81.5792 76.4467 81.5792 76.0309 81.6386 75.6151C81.698 75.4369 81.8168 75.3181 81.9356 75.2587C82.0544 75.0805 82.1733 74.9023 82.3515 74.8429C83.3021 74.3083 84.3714 75.3181 84.1932 76.2091Z" fill="#F96565"/>
<path d="M66.5581 31.9264C66.6082 31.9764 66.6082 31.9764 66.6583 32.0265C67.6095 32.7273 68.5608 33.4781 69.462 34.229C70.0628 34.7296 70.7137 35.1801 71.3145 35.6806C71.3145 35.6306 71.3645 35.5805 71.3645 35.5305V35.4804C72.2657 33.0276 73.8679 31.1254 76.1709 29.874C79.6756 27.9218 84.2817 28.2722 87.3357 31.0754C87.4859 31.2256 87.5861 31.1254 87.6862 31.0253C89.1381 29.5737 90.5901 28.0719 92.0921 26.6203C92.2423 26.4701 92.2423 26.37 92.0921 26.2198C90.2897 24.618 88.2369 23.4166 85.9339 22.7158C82.7797 21.7647 79.6255 21.7147 76.4713 22.5657C72.3659 23.717 69.1115 26.0697 66.7584 29.6237C66.6583 29.7739 66.5581 29.9241 66.458 30.0242C66.2077 30.4246 65.9573 30.8751 65.7571 31.3757C66.0074 31.4758 66.2077 31.6761 66.458 31.8763C66.5081 31.8763 66.5581 31.9264 66.5581 31.9264Z" fill="white"/>
<path d="M89.2884 49.5466C88.5374 48.9459 87.7864 48.3453 87.0354 47.7946C86.9853 47.7446 86.9352 47.6945 86.9352 47.6445L86.8852 47.6945C86.8351 47.6945 86.785 47.7446 86.735 47.7446C84.482 49.1462 82.0287 49.5967 79.4252 49.1462C76.2711 48.6456 73.9179 46.8435 72.2657 44.0904C72.0655 43.74 71.8652 43.3395 71.715 42.9391C71.6149 42.6888 71.5147 42.4886 71.4146 42.2383C70.0628 43.2895 68.6609 44.3407 67.3092 45.4419C66.8586 45.7923 66.408 46.1928 65.9073 46.5432C65.9073 46.5432 65.9073 46.5432 65.9073 46.5933C65.9073 46.6433 65.9073 46.6433 65.9573 46.6934C65.9573 46.7434 66.0074 46.7434 66.0074 46.7935C66.0074 46.7935 66.0074 46.8435 66.0575 46.8435C66.8085 48.2952 67.7597 49.6467 68.9113 50.7981C71.9653 53.9016 75.6703 55.6536 80.026 55.9539C82.8798 56.1542 85.6836 55.7037 88.287 54.5523C89.789 53.9016 91.1408 53.0006 92.3424 51.8993C91.9419 51.6991 91.5914 51.3487 91.2409 51.0483C90.4899 50.4977 89.8891 50.0472 89.2884 49.5466Z" fill="white"/>
<path d="M96.6982 35.7812C91.5413 35.7812 86.4345 35.7812 81.2777 35.7812C81.0274 35.7812 80.9773 35.8814 80.9773 36.0816C80.9773 38.0839 80.9773 40.0862 80.9773 42.0885C80.9773 42.3387 81.0274 42.3888 81.3278 42.3888C84.2316 42.3888 87.0854 42.3888 89.9893 42.3888C90.1895 42.3888 90.2897 42.4389 90.2396 42.6891C89.9392 44.0407 89.3384 45.2921 88.4372 46.3433C88.3371 46.4935 88.2369 46.5936 88.0867 46.6937C87.7363 47.0441 87.3357 47.3445 86.9352 47.6448C86.9853 47.6949 86.9853 47.7449 87.0353 47.795C87.7863 48.3957 88.5373 48.9963 89.2883 49.547C89.8891 50.0475 90.54 50.4981 91.1408 50.9986C91.4913 51.299 91.8417 51.5993 92.2423 51.8496C92.2923 51.7995 92.3424 51.7995 92.3424 51.7495C93.4939 50.6482 94.4452 49.3968 95.1962 47.9952C97.1989 44.2409 97.6494 40.2363 96.9986 36.0315C96.9986 35.8313 96.8985 35.7812 96.6982 35.7812Z" fill="white"/>
<path d="M67.259 45.4918C68.6108 44.4406 70.0127 43.3394 71.3645 42.2882V42.2381C71.3645 42.1881 71.3645 42.138 71.3144 42.138V42.088C70.9139 40.8365 70.7637 39.5851 70.8638 38.2836C70.8638 37.9833 70.9139 37.733 70.9639 37.4827C70.9639 37.3826 71.014 37.2825 71.014 37.1824C71.014 37.1323 71.014 37.0822 71.0641 37.0322C71.0641 36.9321 71.1141 36.832 71.1141 36.7318C71.1642 36.4315 71.2643 36.0811 71.3645 35.7808C70.7637 35.2802 70.1128 34.8297 69.512 34.3291C68.5607 33.5782 67.6095 32.8774 66.7083 32.1266C66.6582 32.0765 66.6582 32.0765 66.6081 32.0265C66.5581 31.9764 66.5581 31.9764 66.508 31.9264C66.3077 31.7261 66.1075 31.576 65.8071 31.4258C65.757 31.4258 65.757 31.4758 65.757 31.5259C65.757 31.5259 65.757 31.576 65.7069 31.576C65.2563 32.4269 64.9559 33.378 64.6555 34.279C64.255 35.6806 64.0547 37.0822 64.0047 38.4838C63.9546 40.7364 64.3051 42.9389 65.1061 45.0413C65.1061 45.0914 65.1061 45.0914 65.1562 45.1414C65.2063 45.2916 65.2563 45.4418 65.3565 45.592V45.642C65.5067 45.9424 65.6569 46.2928 65.8071 46.5931C66.3077 46.2427 66.7583 45.8422 67.259 45.4918Z" fill="white"/>
</svg>
