<svg width="161" height="79" viewBox="0 0 161 79" fill="none" xmlns="http://www.w3.org/2000/svg">
<path d="M130.822 44.3111C129.871 38.5495 126.485 33.6194 122.029 27.9765C121.791 27.7983 121.554 27.5607 121.375 27.3825C121.197 27.2043 121.019 27.0262 120.841 26.9074C120.781 26.848 120.722 26.7886 120.722 26.7292C120.544 26.551 120.425 26.3728 120.247 26.1946C120.068 26.0164 119.89 25.7788 119.771 25.6006C119.712 25.5412 119.712 25.5412 119.653 25.4818C119.474 25.3036 119.355 25.066 119.237 24.8878C119.177 24.8284 119.118 24.7096 119.058 24.6502C118.761 24.2344 118.464 23.7592 118.227 23.3434C118.167 23.284 118.167 23.2246 118.108 23.1653C116.326 20.9675 114.484 18.5916 112.583 16.0374C103.968 4.33592 110.028 -1.78212 83.175 0.475022C56.3219 2.67277 51.7474 3.80134 44.1429 11.048C36.5385 18.2352 40.1031 23.7592 35.5286 31.0059C30.954 38.1931 29.4688 44.3111 31.4887 53.7555C33.5086 63.1998 43.133 71.5156 43.133 71.5156C44.1429 71.5156 53.7673 76.5051 70.9961 77.0397C88.2249 77.5743 89.2348 82.0292 98.8592 75.3765C107.474 69.4367 108.008 67.4765 113.415 61.9525C113.533 61.7149 113.712 61.5367 113.89 61.2991C113.949 61.1803 114.068 61.0615 114.127 60.9427C114.306 60.7645 114.424 60.5863 114.603 60.4081C114.662 60.3487 114.722 60.2893 114.781 60.2299C115.137 59.8735 115.553 59.5171 115.91 59.2201C116.088 59.1013 116.266 58.9231 116.444 58.8043C116.682 58.6262 116.92 58.5074 117.157 58.3292C117.336 58.2104 117.514 58.151 117.633 58.0322C124.821 52.7457 132.188 52.8645 130.822 44.3111ZM39.6872 44.0735C39.6278 44.0735 39.5684 44.0735 39.4496 44.0735C39.1525 44.0735 38.9743 43.8359 38.9743 43.5983C38.9149 43.1825 39.4496 42.7668 39.806 43.1231C39.9249 43.2419 40.0437 43.3607 40.0437 43.5983C40.0437 43.7765 39.8655 44.0141 39.6872 44.0735ZM43.4894 15.1465C43.4894 15.7998 42.4795 15.7998 42.4795 15.1465V15.0277C42.4795 14.3743 43.4894 14.3743 43.4894 15.0277V15.1465ZM116.623 50.4886C116.385 50.6074 116.088 50.548 115.969 50.3104C115.85 50.0728 115.91 49.7164 116.147 49.657C116.444 49.5382 116.801 49.4788 117.098 49.4788C117.039 49.8352 116.979 50.1322 116.86 50.4886C116.741 50.4886 116.682 50.4886 116.623 50.4886ZM114.84 33.7382C114.781 33.9758 114.662 34.154 114.365 34.154C113.712 34.154 113.712 33.1442 114.365 33.1442C114.662 33.1442 114.84 33.3818 114.84 33.6194C114.84 33.6194 114.84 33.6788 114.781 33.6788C114.84 33.6788 114.84 33.7382 114.84 33.7382ZM116.682 24.6502L108.305 32.3126C107.949 32.669 107.652 33.0254 107.295 33.3224V32.6096C110.444 29.9961 113.474 27.2043 116.682 24.6502ZM107.533 12.0577C108.186 12.0577 108.186 13.0675 107.533 13.0675C106.879 13.0081 106.879 12.0577 107.533 12.0577ZM74.7389 16.6314C74.8577 16.6908 74.9765 16.8096 75.0953 16.869C75.0953 16.7502 75.0953 16.6908 75.0953 16.6314C75.0359 16.5126 75.0359 16.3344 74.9765 16.2156C74.9171 15.8592 75.333 15.681 75.63 15.7404C76.0459 15.5028 76.64 15.5622 77.0559 15.7998C77.7094 16.275 77.7094 17.166 77.4123 17.8788C77.4123 17.9382 77.4123 17.9382 77.3529 17.9976H75.0953H75.0359C74.7389 17.8194 74.5012 17.6412 74.2042 17.463C73.7289 17.1066 74.2042 16.275 74.7389 16.6314ZM66.4215 10.9292C66.481 10.6916 66.6592 10.5134 66.8968 10.5134C67.1345 10.5134 67.4315 10.751 67.3721 10.9886C67.3721 11.4637 67.1345 11.7607 66.6592 11.8201C66.3621 11.8795 66.1839 11.5825 66.1839 11.3449C66.1839 11.1074 66.2433 10.9886 66.4215 10.9292ZM80.7987 76.2081C80.7393 76.6239 80.4422 76.9803 80.0263 77.0991C79.9075 77.2773 79.6699 77.3367 79.4917 77.2773C79.3134 77.3367 79.0758 77.3367 78.8976 77.2179C78.7193 77.0991 78.5411 76.9803 78.4223 76.8021C78.1846 76.4457 78.1846 76.0299 78.244 75.6141C78.3035 75.4359 78.4223 75.3171 78.5411 75.2577C78.6599 75.0795 78.7787 74.9013 78.957 74.8419C79.9075 74.3074 80.9769 75.3171 80.7987 76.2081Z" fill="#2C80BD"/>
<path d="M81.2307 56.4878C81.2307 51.0232 81.2307 45.6179 81.2307 40.1532C81.2307 39.975 81.2307 39.7969 81.2307 39.5593C81.4089 39.5593 81.5277 39.5593 81.7059 39.5593C83.607 39.5593 85.4487 39.5593 87.3499 39.5593C88.1222 39.5593 88.4192 39.2623 88.4192 38.4901C88.4192 36.3517 88.4192 34.2134 88.4192 32.1344C88.4192 31.3623 88.1222 31.0653 87.3499 31.0653C85.5082 31.0653 83.607 31.0653 81.7654 31.0653C81.6465 31.0653 81.4683 31.0653 81.2901 31.0653C81.2901 31.0059 81.2307 30.9465 81.2307 30.8871C81.2307 29.4615 81.2307 27.9766 81.2307 26.551C81.2307 25.8382 81.3495 25.1254 82.0624 24.7096C82.4783 24.472 82.9535 24.2938 83.4288 24.2344C84.7952 24.175 86.1617 24.175 87.5281 24.175C88.4192 24.175 88.6569 23.8781 88.6569 23.0465C88.6569 21.1457 88.6569 19.1856 88.6569 17.2848C88.6569 16.7502 88.4786 16.3344 87.944 16.1562C85.7458 16.1562 83.5476 16.1562 81.3495 16.1562C80.8742 16.2156 80.3395 16.3344 79.8642 16.4532C75.8838 17.3442 73.5074 19.839 72.6757 23.8187C72.4975 24.769 72.438 25.7788 72.438 26.7292C72.3786 28.2141 72.438 29.6397 72.438 31.1841C72.2598 31.1841 72.141 31.1841 71.9628 31.1841C70.4181 31.1841 68.8141 31.1841 67.2694 31.1841C66.4377 31.1841 66.1406 31.4811 66.1406 32.2532C66.1406 34.3916 66.1406 36.4705 66.1406 38.6089C66.1406 39.4405 66.4377 39.7375 67.21 39.7375C68.7546 39.7375 70.2993 39.7375 71.9034 39.7375C72.0222 39.7375 72.2004 39.7375 72.3786 39.7375C72.3786 39.9157 72.3786 40.0938 72.3786 40.272C72.3786 45.7367 72.3786 51.2608 72.3786 56.7254C72.3786 57.26 72.5569 57.6164 73.0321 57.854C75.5273 57.854 78.0225 57.854 80.5178 57.854C81.1118 57.4382 81.2307 57.0224 81.2307 56.4878Z" fill="white"/>
</svg>
