<svg width="24" height="24" viewBox="0 0 24 24" fill="none" xmlns="http://www.w3.org/2000/svg">
<g clip-path="url(#clip0)">
<path fill-rule="evenodd" clip-rule="evenodd" d="M4.07108 18.599C3.62533 19.0447 3.62533 19.7674 4.07108 20.2132C4.51684 20.659 5.23954 20.659 5.6853 20.2132L12.1422 13.7563L18.599 20.2132C19.0448 20.659 19.7675 20.659 20.2132 20.2132C20.659 19.7674 20.659 19.0447 20.2132 18.599L13.7564 12.1421L20.2132 5.68528C20.659 5.23953 20.659 4.51682 20.2132 4.07107C19.7675 3.62531 19.0448 3.62531 18.599 4.07107L12.1422 10.5279L5.6853 4.07107C5.23955 3.62531 4.51684 3.62531 4.07108 4.07107C3.62533 4.51682 3.62533 5.23953 4.07108 5.68528L10.5279 12.1421L4.07108 18.599Z" fill="black" fill-opacity="0.87"/>
</g>
<defs>
<clipPath id="clip0">
<rect width="24" height="24" fill="white"/>
</clipPath>
</defs>
</svg>
