<svg width="24" height="24" viewBox="0 0 24 24" fill="none" xmlns="http://www.w3.org/2000/svg">
<path fill-rule="evenodd" clip-rule="evenodd" d="M16.0418 9.57263C16.0418 12.5931 13.5931 15.0418 10.5726 15.0418C7.55212 15.0418 5.10351 12.5931 5.10351 9.57263C5.10351 6.55212 7.55212 4.10351 10.5726 4.10351C13.5931 4.10351 16.0418 6.55212 16.0418 9.57263ZM14.2664 16.1848C13.1737 16.7966 11.9139 17.1453 10.5726 17.1453C6.39038 17.1453 3 13.7549 3 9.57263C3 5.39038 6.39038 2 10.5726 2C14.7549 2 18.1453 5.39038 18.1453 9.57263C18.1453 11.6524 17.3069 13.5363 15.9496 14.9049L20.7873 20.07C21.1843 20.4939 21.1625 21.1595 20.7386 21.5566C20.3146 21.9536 19.649 21.9319 19.252 21.5079L14.2664 16.1848Z" fill="black" fill-opacity="0.87"/>
</svg>
